<svg width="56" height="30" viewBox="0 0 56 30" fill="none" xmlns="http://www.w3.org/2000/svg">
<g clip-path="url(#clip0_5_132)">
<path d="M23.9803 9.90873L24.3276 7.93911L6.60101 4.81345L6.25372 6.78306L12.5693 17.0355L11.7011 21.9596L6.77707 21.0913L6.42977 23.0609L18.2475 25.1447L18.5948 23.1751L13.6707 22.3069L14.539 17.3828L23.9803 9.90873ZM10.2691 9.52194L8.87331 7.24497L21.3705 9.44856L19.2703 11.1091L10.2691 9.52194Z" fill="#3B553A"/>
</g>
<g clip-path="url(#clip1_5_132)">
<path d="M49.0701 6.30394L48.7228 4.33432L30.9962 7.45999L31.3435 9.42961L40.7848 16.9037L41.653 21.8277L36.729 22.696L37.0763 24.6656L48.894 22.5818L48.5467 20.6122L43.6227 21.4804L42.7544 16.5564L49.0701 6.30394ZM36.0535 10.63L33.9631 8.9677L46.4603 6.76411L45.0546 9.04282L36.0535 10.63Z" fill="#3B553A"/>
</g>
<defs>
<clipPath id="clip0_5_132">
<rect width="24" height="24" fill="white" transform="translate(4.16754 1.33807) rotate(10)"/>
</clipPath>
<clipPath id="clip1_5_132">
<rect width="24" height="24" fill="white" transform="translate(27.5209 5.02652) rotate(-10)"/>
</clipPath>
</defs>
</svg>
